# xmcd
#
# Track frame offsets: 
#        150
#        13035
#        33667
#        58230
#        80999
#        93475
#        116981
#        139280
#        161335
#        181985
#        217055
#        231652
#        253315
#        280946
#        305289
#        331005
#        341553
#
# Disc length: 4769 seconds
#
# Revision: 0
# Processed by: cddbd v1.5.2PL0 Copyright (c) Steve Scherf et al.
# Submitted via: ExactAudioCopy v0.99pb5
#
DISCID=0a129f11
DTITLE=Elvis Presley  - FTD 71-2 - That's The Way It Is - CD 2  FLAC
DYEAR=1900
DGENRE=
TTITLE0=Tiger Man (Jam, 06-04-1970)
TTITLE1=Twenty Days And Twenty Nights (Rehearsal, Takes 1-3)
TTITLE2=I've Lost You (Rehearsal-Take 1)
TTITLE3=Bridge Over Troubled Water (Take 1)
TTITLE4=You Don't Have To Say You Love Me (Rehearsal Composite)
TTITLE5=The Next Step Is Love (Rehearsal, takes 2-3, 6)
TTITLE6=How The Web Was Woven (Rehearsal, Take 1)
TTITLE7=Stranger In The Crowd (Rehearsal, Takes 1, 3-5)
TTITLE8=Stranger In The Crowd (Master, Take 9, Rough Mix)
TTITLE9=Mary In The Morning (Takes 1-4)
TTITLE10=You Don't Have To Say You Love Me (Takes 1-2)
TTITLE11=Just Pretend (Takes 1-2)
TTITLE12=The Next Step Is Love (Takes 7-10)
TTITLE13=I've Lost You (Take 4-6)
TTITLE14=Bridge Over Troubled Water (Rehearsal, Takes 2, 5)
TTITLE15=Twenty Days And Twenty Nights (Takes 5-6)
TTITLE16=Twenty Days And Twenty Nights (Master, Take 9, Rough Mix)
EXTD=
EXTT0=
EXTT1=
EXTT2=
EXTT3=
EXTT4=
EXTT5=
EXTT6=
EXTT7=
EXTT8=
EXTT9=
EXTT10=
EXTT11=
EXTT12=
EXTT13=
EXTT14=
EXTT15=
EXTT16=
PLAYORDER=
